<?xml version="1.0" encoding="utf-8"?>
<!-- Generator: Adobe Illustrator 23.0.5, SVG Export Plug-In . SVG Version: 6.00 Build 0)  -->
<svg version="1.2" baseProfile="tiny" id="Capa_1" xmlns="http://www.w3.org/2000/svg" xmlns:xlink="http://www.w3.org/1999/xlink"
	 x="0px" y="0px" viewBox="0 0 450 70" xml:space="preserve">
<g>
</g>
<g>
	<path fill="none" d="M156.57,48.87c0.15,0.52,0.5,0.74,1.03,0.74c2.12,0.01,4.25,0.02,6.37-0.01c0.28-0.01,0.73-0.18,0.81-0.4
		c0.37-0.86,0.64-1.77,0.96-2.71c-3.35,0-6.6,0-9.93,0C156.08,47.33,156.36,48.09,156.57,48.87z"/>
	<path fill="none" d="M156.29,43.96c0.01-0.61-0.56-1.14-1.22-1.13c-0.68,0-1.22,0.49-1.23,1.11c-0.01,0.63,0.51,1.12,1.21,1.12
		C155.73,45.08,156.28,44.6,156.29,43.96z"/>
	<path fill="none" d="M166.34,42.83c-0.69,0.01-1.21,0.5-1.21,1.13c0.01,0.63,0.54,1.11,1.23,1.11c0.71,0,1.2-0.47,1.19-1.13
		C167.55,43.3,167.04,42.83,166.34,42.83z"/>
	<path fill="none" d="M173.29,43.36c-0.1-0.58-0.24-1.14-0.42-1.68c-0.06-0.17-0.13-0.36-0.2-0.53c-0.28-0.71-0.63-1.38-1.05-2.01
		c-0.11-0.17-0.22-0.32-0.34-0.48c-0.22-0.3-0.45-0.6-0.71-0.88c-1.55-1.73-3.64-3.04-6.04-3.71c-0.52-0.14-1.05-0.26-1.59-0.34
		c-0.26-0.04-0.51-0.06-0.77-0.09c-0.16-0.02-0.32-0.03-0.48-0.04c-0.27-0.02-0.54-0.03-0.81-0.03c-0.01,0-0.02,0-0.04,0
		c-0.78,0-1.56,0.06-2.36,0.19c-4.01,0.66-7.51,3.27-9.12,6.72c-0.18,0.4-0.34,0.78-0.47,1.18c0,0.01-0.01,0.03-0.01,0.04
		c-0.11,0.29-0.19,0.59-0.26,0.88c-0.02,0.08-0.04,0.17-0.06,0.25c-0.08,0.37-0.15,0.74-0.19,1.11c-0.02,0.14-0.03,0.27-0.03,0.4
		c-0.03,0.26-0.04,0.51-0.04,0.77c-0.02,6.25,5.61,11.55,12.3,11.57c7.21,0.02,12.81-5,12.83-11.51
		C173.43,44.54,173.38,43.94,173.29,43.36z M165.71,38.84c0.48-0.37,0.97-0.27,1.46-0.02c0.8,0.4,0.64,1.09,0.6,1.83
		c-0.87-0.09-1.67-0.17-2.49-0.26C165.1,39.78,165.17,39.26,165.71,38.84z M154.38,38.92c0.39-0.2,1-0.3,1.38-0.17
		c0.71,0.27,0.81,0.91,0.65,1.65c-0.84,0.08-1.63,0.17-2.47,0.25C153.83,39.97,153.64,39.29,154.38,38.92z M169.2,44.88
		c0,0.83-0.31,1.27-1.18,1.51c-0.42,0.11-0.55,0.32-0.65,0.65c-0.26,0.82-0.55,1.64-0.83,2.46c-0.37,1.09-0.96,1.54-2.2,1.6
		c-0.39,0.02-0.51,0.17-0.57,0.51c-0.14,0.86-0.59,1.24-1.52,1.28c-0.86,0.04-1.72,0.04-2.58,0.01c-0.99-0.04-1.43-0.5-1.68-1.49
		c-0.89-0.3-1.63-0.49-2.28-0.81c-0.31-0.16-0.52-0.57-0.65-0.91c-0.28-0.72-0.48-1.47-0.69-2.22c-0.14-0.53-0.28-0.97-0.97-1.21
		c-0.36-0.13-0.64-0.74-0.71-1.17c-0.11-0.74-0.05-1.49-0.03-2.23c0.02-0.99,0.55-1.55,1.63-1.66c4.14-0.4,8.28-0.61,12.43-0.06
		c2.25,0.3,2.49,0.55,2.48,2.68C169.2,44.19,169.2,44.53,169.2,44.88z"/>
	<path fill="#FCE900" d="M178.38,44.9c0.02-0.35,0.04-0.7,0.04-1.05c0-0.36-0.01-0.71-0.04-1.07c-0.02-0.35-0.05-0.71-0.1-1.06
		c-0.04-0.36-0.09-0.71-0.15-1.07c-0.05-0.35-0.12-0.7-0.19-1.05c-0.11-0.57-0.24-1.13-0.37-1.7c-0.07-0.28-0.13-0.56-0.2-0.84
		c-0.1-0.41-0.19-0.83-0.29-1.24c-0.03-0.14-0.07-0.29-0.1-0.42c-0.09-0.36-0.17-0.72-0.26-1.08c-0.11-0.42-0.23-0.84-0.35-1.25
		c-0.07-0.22-0.14-0.43-0.22-0.64c-0.17-0.47-0.35-0.93-0.55-1.38c-0.13-0.29-0.26-0.57-0.39-0.85c-0.67-1.42-1.44-2.79-2.2-4.15
		c-3.1-5.55-7.02-10.56-11.79-15.09c-0.11,0.07-0.19,0.12-0.25,0.18c-1.16,1.2-2.38,2.35-3.47,3.6c-1.58,1.8-3.07,3.65-4.45,5.55
		c-0.35,0.47-0.69,0.95-1.02,1.43c-0.33,0.48-0.65,0.97-0.97,1.45c-0.32,0.49-0.63,0.97-0.93,1.47c-0.6,0.98-1.17,2-1.71,3.01
		c-0.21,0.4-0.41,0.79-0.6,1.19c-0.31,0.63-0.62,1.28-0.9,1.93c-0.24,0.52-0.46,1.06-0.67,1.59c-0.17,0.41-0.33,0.83-0.48,1.25
		c-0.25,0.67-0.49,1.35-0.7,2.04c-0.13,0.4-0.25,0.81-0.36,1.22c-0.07,0.2-0.12,0.4-0.17,0.6c-0.09,0.31-0.17,0.63-0.24,0.94
		c-0.07,0.26-0.13,0.51-0.18,0.77c-0.09,0.35-0.16,0.71-0.22,1.06c-0.79,4.48-0.19,9.07,2.04,13.07c0.24,0.41,0.48,0.82,0.75,1.22
		c0.11,0.17,0.22,0.33,0.34,0.49c0.16,0.23,0.33,0.46,0.5,0.68c0.22,0.29,0.46,0.58,0.7,0.86c0.41,0.48,0.85,0.92,1.3,1.34
		c0.03,0.03,0.06,0.06,0.1,0.09c0.23,0.2,0.46,0.4,0.7,0.6c0.24,0.2,0.49,0.4,0.75,0.57c0.01,0.02,0.02,0.02,0.03,0.03
		c0.16,0.12,0.32,0.23,0.49,0.33c0.16,0.11,0.32,0.21,0.49,0.31c0.35,0.22,0.72,0.42,1.1,0.61c0.18,0.09,0.37,0.18,0.56,0.27
		c0.25,0.13,0.51,0.23,0.77,0.33c0.21,0.08,0.42,0.17,0.64,0.23c0.21,0.08,0.42,0.15,0.64,0.21c0.24,0.07,0.49,0.14,0.74,0.2
		c0.32,0.08,0.65,0.16,0.99,0.22c0.34,0.06,0.68,0.12,1.03,0.17c0.35,0.06,0.7,0.09,1.06,0.12c5.18,0.43,9.51-1.36,13.05-4.76
		C176.31,53.96,178.04,49.69,178.38,44.9z M160.6,56.66c-6.69-0.02-12.32-5.31-12.3-11.57c0-0.26,0.01-0.51,0.04-0.77
		c0-0.13,0.01-0.26,0.03-0.4c0.04-0.38,0.11-0.74,0.19-1.11c0.02-0.08,0.04-0.17,0.06-0.25c0.07-0.29,0.15-0.59,0.26-0.88
		c0-0.01,0.01-0.03,0.01-0.04c0.13-0.4,0.29-0.78,0.47-1.18c1.61-3.45,5.11-6.06,9.12-6.72c0.8-0.13,1.58-0.19,2.36-0.19
		c0.02,0,0.03,0,0.04,0c0.27,0,0.54,0.01,0.81,0.03c0.16,0.01,0.32,0.02,0.48,0.04c0.26,0.03,0.51,0.06,0.77,0.09
		c0.54,0.08,1.07,0.2,1.59,0.34c2.4,0.67,4.49,1.99,6.04,3.71c0.26,0.29,0.49,0.58,0.71,0.88c0.12,0.16,0.23,0.31,0.34,0.48
		c0.42,0.63,0.77,1.31,1.05,2.01c0.07,0.17,0.14,0.36,0.2,0.53c0.18,0.54,0.32,1.1,0.42,1.68c0.09,0.58,0.14,1.19,0.14,1.79
		C173.41,51.66,167.81,56.68,160.6,56.66z"/>
	<path fill="#FCE900" d="M166.72,41.15c-4.15-0.55-8.29-0.35-12.43,0.06c-1.08,0.1-1.61,0.66-1.63,1.66
		c-0.02,0.74-0.08,1.5,0.03,2.23c0.07,0.42,0.35,1.04,0.71,1.17c0.69,0.25,0.83,0.68,0.97,1.21c0.21,0.74,0.41,1.5,0.69,2.22
		c0.13,0.34,0.34,0.75,0.65,0.91c0.65,0.32,1.39,0.51,2.28,0.81c0.25,0.99,0.69,1.45,1.68,1.49c0.86,0.03,1.72,0.03,2.58-0.01
		c0.93-0.04,1.38-0.41,1.52-1.28c0.06-0.35,0.18-0.5,0.57-0.51c1.24-0.06,1.83-0.51,2.2-1.6c0.28-0.82,0.57-1.64,0.83-2.46
		c0.1-0.33,0.23-0.54,0.65-0.65c0.87-0.24,1.18-0.68,1.18-1.51c0-0.35,0-0.7,0-1.06C169.21,41.7,168.97,41.45,166.72,41.15z
		 M155.05,45.07c-0.7,0-1.22-0.49-1.21-1.12c0.01-0.63,0.55-1.11,1.23-1.11c0.66-0.01,1.23,0.52,1.22,1.13
		C156.28,44.6,155.73,45.08,155.05,45.07z M164.78,49.21c-0.08,0.21-0.53,0.39-0.81,0.4c-2.12,0.03-4.25,0.02-6.37,0.01
		c-0.53,0-0.88-0.21-1.03-0.74c-0.21-0.78-0.49-1.54-0.76-2.38c3.33,0,6.58,0,9.93,0C165.42,47.44,165.15,48.34,164.78,49.21z
		 M166.36,45.08c-0.69,0-1.22-0.48-1.23-1.11c0-0.63,0.52-1.12,1.21-1.13c0.7,0,1.21,0.47,1.21,1.11
		C167.56,44.61,167.07,45.08,166.36,45.08z"/>
	<path fill="#FCE900" d="M156.41,40.4c0.16-0.74,0.06-1.38-0.65-1.65c-0.38-0.14-0.99-0.04-1.38,0.17
		c-0.74,0.38-0.55,1.06-0.44,1.73C154.78,40.56,155.57,40.48,156.41,40.4z"/>
	<path fill="#FCE900" d="M167.77,40.65c0.04-0.74,0.2-1.43-0.6-1.83c-0.49-0.25-0.98-0.35-1.46,0.02c-0.54,0.41-0.61,0.94-0.43,1.55
		C166.1,40.48,166.9,40.56,167.77,40.65z"/>
</g>
<g>
	<path fill="#FCFCFC" d="M66.15,58.28c0,0.48-0.03,0.88-0.08,1.21c-0.05,0.33-0.13,0.6-0.25,0.83c-0.12,0.23-0.26,0.4-0.42,0.51
		c-0.17,0.11-0.37,0.16-0.6,0.16H42.78c-0.59,0-1.15-0.19-1.68-0.56c-0.53-0.37-0.79-1.03-0.79-1.97V15.18
		c0-0.19,0.05-0.36,0.15-0.51c0.1-0.14,0.28-0.26,0.54-0.34c0.26-0.08,0.6-0.16,1.04-0.22c0.44-0.06,0.96-0.09,1.58-0.09
		c0.64,0,1.17,0.03,1.6,0.09c0.42,0.06,0.76,0.13,1.02,0.22c0.26,0.08,0.44,0.2,0.54,0.34c0.1,0.14,0.15,0.31,0.15,0.51V55.6h17.87
		c0.23,0,0.43,0.05,0.6,0.16c0.17,0.11,0.31,0.26,0.42,0.47c0.12,0.2,0.2,0.48,0.25,0.81C66.13,57.39,66.15,57.8,66.15,58.28z"/>
	<path fill="#FCFCFC" d="M104.97,43.47c0,2.65-0.37,5.09-1.12,7.32s-1.86,4.15-3.33,5.76c-1.48,1.61-3.33,2.87-5.55,3.78
		c-2.22,0.9-4.79,1.35-7.72,1.35c-2.85,0-5.33-0.4-7.45-1.19s-3.88-1.95-5.3-3.47s-2.46-3.36-3.16-5.53
		c-0.69-2.17-1.04-4.62-1.04-7.37c0-2.65,0.37-5.09,1.1-7.32c0.73-2.23,1.84-4.15,3.31-5.76c1.48-1.61,3.32-2.87,5.53-3.76
		c2.21-0.89,4.79-1.34,7.74-1.34c2.85,0,5.33,0.4,7.45,1.19c2.12,0.79,3.88,1.95,5.29,3.47s2.47,3.36,3.18,5.53
		C104.62,38.3,104.97,40.74,104.97,43.47z M98.39,43.86c0-1.76-0.18-3.42-0.53-4.99s-0.93-2.94-1.73-4.12
		c-0.8-1.18-1.89-2.11-3.27-2.8c-1.37-0.69-3.08-1.03-5.13-1.03c-1.89,0-3.52,0.31-4.88,0.94c-1.36,0.63-2.48,1.51-3.36,2.65
		c-0.88,1.14-1.54,2.5-1.96,4.06s-0.64,3.28-0.64,5.13c0,1.78,0.17,3.46,0.52,5.02c0.35,1.57,0.93,2.93,1.75,4.1
		c0.82,1.17,1.91,2.1,3.28,2.78s3.08,1.03,5.13,1.03c1.87,0,3.48-0.31,4.86-0.94c1.37-0.63,2.5-1.5,3.38-2.64s1.53-2.48,1.94-4.05
		C98.18,47.46,98.39,45.74,98.39,43.86z"/>
	<path fill="#FCFCFC" d="M139.25,55.13c0,0.41-0.01,0.77-0.04,1.07s-0.07,0.55-0.13,0.76c-0.06,0.21-0.14,0.39-0.23,0.54
		c-0.09,0.16-0.29,0.39-0.62,0.69c-0.32,0.3-0.87,0.67-1.64,1.12c-0.77,0.45-1.64,0.84-2.6,1.19c-0.96,0.35-2.01,0.63-3.14,0.85
		s-2.3,0.33-3.5,0.33c-2.49,0-4.7-0.39-6.62-1.16s-3.54-1.9-4.83-3.38c-1.3-1.48-2.29-3.3-2.96-5.45c-0.68-2.16-1.02-4.64-1.02-7.46
		c0-3.2,0.42-5.96,1.25-8.25c0.83-2.3,1.98-4.18,3.43-5.65c1.45-1.47,3.16-2.56,5.12-3.27c1.96-0.71,4.09-1.07,6.37-1.07
		c1.1,0,2.18,0.1,3.22,0.29c1.04,0.19,2,0.45,2.87,0.76c0.87,0.31,1.65,0.67,2.33,1.08c0.68,0.41,1.17,0.76,1.48,1.05
		c0.31,0.29,0.52,0.52,0.64,0.69c0.12,0.17,0.21,0.37,0.29,0.6c0.08,0.23,0.13,0.49,0.15,0.78s0.04,0.65,0.04,1.08
		c0,0.94-0.12,1.6-0.35,1.97c-0.23,0.37-0.51,0.56-0.85,0.56c-0.38,0-0.83-0.2-1.33-0.6c-0.5-0.4-1.14-0.84-1.91-1.32
		c-0.77-0.48-1.7-0.92-2.79-1.32c-1.09-0.4-2.38-0.6-3.87-0.6c-3.06,0-5.4,1.1-7.03,3.31c-1.63,2.2-2.45,5.4-2.45,9.59
		c0,2.09,0.21,3.93,0.64,5.51c0.42,1.58,1.05,2.9,1.87,3.96s1.83,1.85,3.02,2.37c1.19,0.52,2.56,0.78,4.1,0.78
		c1.46,0,2.75-0.22,3.85-0.65c1.1-0.43,2.06-0.91,2.87-1.43c0.81-0.52,1.49-0.99,2.04-1.41c0.55-0.42,0.98-0.63,1.29-0.63
		c0.18,0,0.33,0.05,0.46,0.14c0.13,0.1,0.24,0.26,0.33,0.49c0.09,0.23,0.15,0.52,0.19,0.87C139.23,54.24,139.25,54.65,139.25,55.13z
		"/>
	<path fill="#FCFCFC" d="M201.38,57.7c0,0.7-0.05,1.25-0.15,1.66c-0.1,0.41-0.26,0.71-0.46,0.9c-0.21,0.19-0.51,0.37-0.92,0.54
		c-0.41,0.17-0.88,0.31-1.41,0.42s-1.08,0.2-1.68,0.27s-1.18,0.11-1.77,0.11c-1.8,0-3.34-0.22-4.62-0.67
		c-1.28-0.45-2.34-1.12-3.16-2.02c-0.82-0.9-1.42-2.05-1.79-3.43s-0.56-3.02-0.56-4.9v-19H180c-0.38,0-0.69-0.19-0.92-0.58
		c-0.23-0.38-0.35-1.01-0.35-1.88c0-0.46,0.03-0.84,0.1-1.16c0.06-0.31,0.15-0.57,0.25-0.78c0.1-0.2,0.24-0.35,0.41-0.43
		c0.17-0.08,0.35-0.13,0.56-0.13h4.81V18.9c0-0.17,0.04-0.32,0.13-0.47s0.26-0.27,0.5-0.38c0.24-0.11,0.57-0.19,0.98-0.23
		c0.41-0.05,0.92-0.07,1.54-0.07c0.64,0,1.17,0.02,1.58,0.07c0.41,0.05,0.73,0.13,0.96,0.23s0.4,0.24,0.5,0.38
		c0.1,0.14,0.15,0.3,0.15,0.47v7.73h8.9c0.21,0,0.38,0.04,0.54,0.13c0.15,0.08,0.29,0.23,0.4,0.43c0.12,0.21,0.2,0.46,0.25,0.78
		c0.05,0.31,0.08,0.7,0.08,1.16c0,0.87-0.12,1.49-0.35,1.88c-0.23,0.39-0.54,0.58-0.92,0.58h-8.9v18.13c0,2.24,0.35,3.93,1.06,5.08
		c0.71,1.14,1.97,1.72,3.79,1.72c0.59,0,1.12-0.05,1.58-0.16c0.46-0.11,0.87-0.22,1.23-0.34c0.36-0.12,0.67-0.23,0.92-0.34
		s0.49-0.16,0.69-0.16c0.13,0,0.25,0.03,0.37,0.09c0.12,0.06,0.21,0.17,0.27,0.34c0.06,0.17,0.12,0.4,0.17,0.69
		S201.38,57.27,201.38,57.7z"/>
	<path fill="#FCFCFC" d="M238.5,42.42c0,0.94-0.25,1.61-0.75,2s-1.08,0.6-1.72,0.6H213.2c0,1.81,0.19,3.43,0.58,4.88
		c0.39,1.44,1.03,2.69,1.93,3.72c0.9,1.04,2.08,1.83,3.52,2.38c1.44,0.55,3.21,0.83,5.3,0.83c1.65,0,3.12-0.13,4.41-0.38
		c1.29-0.25,2.41-0.54,3.35-0.85c0.94-0.31,1.72-0.6,2.32-0.85s1.06-0.38,1.37-0.38c0.18,0,0.34,0.04,0.48,0.13
		c0.14,0.08,0.25,0.21,0.33,0.38c0.08,0.17,0.14,0.4,0.17,0.71c0.04,0.3,0.06,0.67,0.06,1.1c0,0.31-0.01,0.58-0.04,0.81
		c-0.03,0.23-0.06,0.43-0.1,0.61c-0.04,0.18-0.1,0.34-0.19,0.49c-0.09,0.14-0.21,0.28-0.35,0.42c-0.14,0.13-0.56,0.35-1.25,0.65
		s-1.59,0.6-2.7,0.88s-2.38,0.55-3.83,0.78c-1.45,0.23-3,0.34-4.64,0.34c-2.85,0-5.35-0.37-7.49-1.12s-3.95-1.85-5.41-3.32
		s-2.57-3.31-3.31-5.53c-0.74-2.22-1.12-4.79-1.12-7.73c0-2.79,0.38-5.3,1.16-7.53s1.88-4.12,3.33-5.67
		c1.45-1.55,3.2-2.75,5.26-3.58c2.05-0.83,4.35-1.25,6.89-1.25c2.72,0,5.04,0.41,6.95,1.23c1.91,0.82,3.49,1.92,4.72,3.3
		c1.23,1.39,2.14,3.01,2.71,4.88c0.58,1.87,0.87,3.86,0.87,5.98V42.42z M232.11,40.65c0.08-3.13-0.67-5.59-2.23-7.37
		c-1.56-1.78-3.88-2.67-6.96-2.67c-1.58,0-2.96,0.28-4.15,0.83c-1.19,0.55-2.18,1.29-2.98,2.2c-0.8,0.92-1.42,1.98-1.86,3.2
		c-0.44,1.22-0.68,2.49-0.74,3.81H232.11z"/>
	<path fill="#FCE900" d="M282.18,54.38c0,0.39-0.01,0.72-0.04,1.01s-0.07,0.54-0.13,0.76s-0.15,0.41-0.25,0.58
		c-0.1,0.17-0.28,0.37-0.54,0.61c-0.26,0.24-0.8,0.61-1.62,1.1c-0.82,0.49-1.84,0.98-3.06,1.45s-2.62,0.87-4.2,1.19
		c-1.58,0.33-3.31,0.49-5.18,0.49c-3.24,0-6.16-0.51-8.76-1.52c-2.61-1.01-4.83-2.5-6.66-4.48c-1.84-1.97-3.25-4.41-4.24-7.32
		c-0.99-2.9-1.48-6.24-1.48-10.02c0-3.88,0.53-7.33,1.6-10.37c1.07-3.03,2.56-5.6,4.49-7.71s4.23-3.71,6.91-4.82
		c2.68-1.11,5.65-1.66,8.92-1.66c1.44,0,2.84,0.13,4.2,0.38c1.36,0.25,2.62,0.57,3.77,0.96c1.16,0.39,2.18,0.83,3.08,1.34
		c0.9,0.51,1.52,0.92,1.87,1.25s0.57,0.57,0.67,0.74c0.1,0.17,0.19,0.37,0.25,0.6c0.06,0.23,0.12,0.5,0.15,0.81
		c0.04,0.31,0.06,0.69,0.06,1.12c0,0.48-0.03,0.89-0.08,1.23s-0.13,0.62-0.23,0.85c-0.1,0.23-0.23,0.4-0.37,0.51
		c-0.14,0.11-0.32,0.16-0.52,0.16c-0.36,0-0.86-0.23-1.51-0.7s-1.48-0.99-2.5-1.55c-1.02-0.57-2.26-1.08-3.72-1.55
		c-1.46-0.47-3.21-0.71-5.25-0.71c-2.22,0-4.24,0.42-6.06,1.25c-1.82,0.83-3.38,2.05-4.67,3.67c-1.29,1.61-2.29,3.58-3,5.91
		s-1.06,4.98-1.06,7.96c0,2.96,0.34,5.58,1.03,7.86c0.68,2.28,1.66,4.18,2.94,5.71c1.28,1.53,2.85,2.69,4.7,3.47
		c1.86,0.78,3.96,1.17,6.31,1.17c1.99,0,3.72-0.23,5.21-0.69c1.48-0.46,2.75-0.97,3.79-1.54c1.04-0.57,1.9-1.08,2.57-1.54
		c0.67-0.46,1.2-0.69,1.59-0.69c0.18,0,0.34,0.04,0.46,0.11s0.23,0.21,0.31,0.42c0.08,0.21,0.14,0.49,0.17,0.85
		C282.16,53.36,282.18,53.82,282.18,54.38z"/>
	<path fill="#FCE900" d="M328.28,58.78c0.21,0.53,0.31,0.96,0.33,1.28s-0.08,0.57-0.29,0.74c-0.21,0.17-0.55,0.28-1.02,0.33
		c-0.48,0.05-1.11,0.07-1.91,0.07s-1.43-0.02-1.91-0.05c-0.48-0.04-0.83-0.1-1.08-0.18c-0.25-0.08-0.42-0.2-0.54-0.34
		c-0.12-0.14-0.22-0.33-0.33-0.54l-4.27-11.38h-20.72l-4.08,11.23c-0.08,0.22-0.18,0.4-0.31,0.56c-0.13,0.16-0.31,0.29-0.56,0.4
		c-0.24,0.11-0.59,0.19-1.04,0.23c-0.45,0.05-1.03,0.07-1.75,0.07c-0.75,0-1.35-0.03-1.83-0.09c-0.48-0.06-0.81-0.17-1-0.34
		c-0.19-0.17-0.28-0.42-0.27-0.74c0.01-0.33,0.12-0.75,0.33-1.28l16.71-43.42c0.1-0.26,0.24-0.48,0.41-0.65
		c0.17-0.17,0.41-0.3,0.73-0.4c0.32-0.1,0.73-0.16,1.23-0.2s1.14-0.05,1.91-0.05c0.82,0,1.5,0.02,2.04,0.05s0.98,0.1,1.31,0.2
		s0.59,0.23,0.77,0.42s0.32,0.4,0.42,0.67L328.28,58.78z M306.83,20.45h-0.04l-8.59,23.3h17.33L306.83,20.45z"/>
	<path fill="#FCE900" d="M369.45,47.58c0,1.47-0.2,2.82-0.6,4.06c-0.4,1.24-0.96,2.35-1.68,3.34c-0.72,0.99-1.59,1.86-2.6,2.6
		c-1.01,0.75-2.16,1.37-3.43,1.88c-1.27,0.51-2.63,0.89-4.08,1.14c-1.45,0.25-3.11,0.38-4.99,0.38h-13.02
		c-0.59,0-1.15-0.19-1.67-0.56c-0.53-0.37-0.79-1.03-0.79-1.97V16.77c0-0.94,0.26-1.59,0.79-1.97c0.53-0.37,1.08-0.56,1.67-0.56
		h11.32c2.98,0,5.42,0.27,7.32,0.79c1.9,0.53,3.49,1.3,4.76,2.31c1.27,1.01,2.23,2.25,2.87,3.72c0.64,1.47,0.96,3.13,0.96,4.99
		c0,1.11-0.14,2.17-0.42,3.18s-0.7,1.95-1.25,2.8c-0.55,0.86-1.25,1.62-2.08,2.29c-0.83,0.67-1.79,1.23-2.87,1.66
		c1.36,0.24,2.63,0.68,3.81,1.32c1.18,0.64,2.21,1.45,3.1,2.44s1.58,2.14,2.1,3.47C369.19,44.54,369.45,45.99,369.45,47.58z
		 M359.47,26.67c0-1.13-0.17-2.16-0.5-3.07c-0.33-0.91-0.86-1.69-1.58-2.33c-0.72-0.64-1.65-1.13-2.8-1.46
		c-1.15-0.34-2.68-0.51-4.57-0.51h-6.84v15.14h7.53c1.72,0,3.1-0.21,4.15-0.63c1.05-0.42,1.92-0.99,2.61-1.7
		c0.69-0.71,1.2-1.54,1.52-2.49S359.47,27.68,359.47,26.67z M362.48,47.95c0-1.4-0.24-2.63-0.71-3.68
		c-0.47-1.06-1.17-1.95-2.08-2.67c-0.91-0.72-2.05-1.27-3.42-1.64c-1.37-0.37-3.09-0.56-5.17-0.56h-7.92v16.47h9.61
		c1.51,0,2.83-0.17,3.96-0.51c1.13-0.34,2.12-0.84,2.98-1.5c0.86-0.66,1.53-1.49,2.02-2.47C362.23,50.39,362.48,49.25,362.48,47.95z
		"/>
	<path fill="#FCE900" d="M406.27,47.87c0,2.19-0.43,4.14-1.29,5.85c-0.86,1.71-2.05,3.16-3.58,4.35c-1.53,1.19-3.33,2.09-5.39,2.69
		c-2.07,0.6-4.29,0.9-6.68,0.9c-1.67,0-3.22-0.13-4.64-0.4c-1.42-0.27-2.7-0.59-3.81-0.98c-1.12-0.38-2.05-0.78-2.81-1.19
		c-0.76-0.41-1.28-0.76-1.58-1.05s-0.51-0.66-0.65-1.1c-0.14-0.45-0.21-1.04-0.21-1.79c0-0.53,0.03-0.97,0.08-1.32
		c0.05-0.35,0.13-0.63,0.23-0.85c0.1-0.22,0.23-0.37,0.38-0.45c0.15-0.08,0.33-0.13,0.54-0.13c0.36,0,0.87,0.21,1.52,0.61
		c0.65,0.41,1.5,0.85,2.52,1.34c1.03,0.48,2.27,0.93,3.72,1.36c1.45,0.42,3.13,0.63,5.03,0.63c1.44,0,2.75-0.18,3.95-0.54
		s2.22-0.87,3.08-1.54c0.86-0.66,1.52-1.47,1.98-2.44c0.46-0.96,0.69-2.06,0.69-3.29c0-1.32-0.32-2.46-0.96-3.4
		c-0.64-0.94-1.49-1.76-2.54-2.47s-2.25-1.36-3.6-1.95c-1.35-0.59-2.73-1.19-4.14-1.81c-1.41-0.61-2.79-1.29-4.12-2.04
		c-1.33-0.75-2.53-1.63-3.58-2.64s-1.91-2.2-2.56-3.56c-0.66-1.36-0.98-2.99-0.98-4.89c0-1.95,0.38-3.69,1.14-5.22
		c0.76-1.53,1.81-2.81,3.16-3.85c1.35-1.04,2.95-1.82,4.81-2.37s3.87-0.81,6.03-0.81c1.1,0,2.21,0.09,3.33,0.27
		c1.12,0.18,2.17,0.42,3.16,0.72c0.99,0.3,1.87,0.64,2.64,1.01s1.28,0.67,1.52,0.9c0.24,0.23,0.4,0.41,0.48,0.54
		c0.08,0.13,0.14,0.3,0.19,0.51c0.05,0.21,0.09,0.45,0.12,0.74s0.04,0.66,0.04,1.12c0,0.43-0.02,0.82-0.06,1.16
		c-0.04,0.34-0.1,0.62-0.17,0.85c-0.08,0.23-0.19,0.4-0.33,0.51c-0.14,0.11-0.3,0.16-0.48,0.16c-0.28,0-0.73-0.17-1.33-0.51
		c-0.6-0.34-1.34-0.72-2.21-1.14c-0.87-0.42-1.91-0.81-3.1-1.16c-1.19-0.35-2.54-0.52-4.02-0.52c-1.39,0-2.59,0.17-3.62,0.52
		c-1.03,0.35-1.87,0.81-2.54,1.39c-0.67,0.58-1.17,1.26-1.5,2.06c-0.33,0.79-0.5,1.64-0.5,2.53c0,1.3,0.32,2.42,0.96,3.36
		c0.64,0.94,1.5,1.77,2.56,2.49s2.28,1.38,3.64,1.99c1.36,0.6,2.75,1.21,4.16,1.82c1.41,0.61,2.8,1.29,4.16,2.02
		c1.36,0.73,2.57,1.6,3.64,2.6c1.07,1,1.93,2.18,2.58,3.54C405.94,44.41,406.27,46.02,406.27,47.87z"/>
</g>
<g>
</g>
<g>
</g>
<g>
</g>
<g>
</g>
<g>
</g>
<g>
</g>
<g>
</g>
<g>
</g>
<g>
</g>
<g>
</g>
<g>
</g>
<g>
</g>
<g>
</g>
<g>
</g>
<g>
</g>
</svg>
